<?xml version="1.0" encoding="utf-8"?>
<!-- Generator: Adobe Illustrator 19.0.1, SVG Export Plug-In . SVG Version: 6.00 Build 0)  -->
<svg version="1.1" xmlns="http://www.w3.org/2000/svg" xmlns:xlink="http://www.w3.org/1999/xlink" x="0px" y="0px"
	 viewBox="0 0 283.5 283.5" style="enable-background:new 0 0 283.5 283.5;" xml:space="preserve">
<style type="text/css">
	.st0{fill:#D36153;}
	.st1{fill:#FFFFFF;}
</style>
<g id="Слой_1">
	<circle class="st0" cx="141.7" cy="141.7" r="141.7"/>
</g>
<g id="Слой_2">
	<path class="st1" d="M40.4,77.1c-0.1-0.3-0.1-0.6-0.1-0.8c0-0.5,0.1-0.9,0.4-1.2c0.4-0.6,1-0.8,1.7-0.8h5.6c0.9,0,1.6,0,2.1,0.1
		c0.5,0.1,1,0.3,1.5,0.7c0.6,0.4,1,1.1,1.4,2L97.6,207l43.2-129.9c0.4-0.9,0.8-1.6,1.4-2c0.6-0.4,1.1-0.7,1.5-0.7
		c0.5-0.1,1.1-0.1,2.1-0.1h5.2c1.4,0,2.1,0.6,2.1,1.7c0,0.4-0.1,0.7-0.2,1.2l-45.7,135.1c-0.9,2.6-2.6,3.9-5.2,3.9h-9.5
		c-2.5,0-4.3-1.3-5.2-3.9L40.4,77.1z"/>
	<path class="st1" d="M152.2,108c0-6,1.2-11.4,3.6-16.2c2.4-4.7,5.6-8.6,9.7-11.5c4.1-2.9,8.8-5.2,14.1-6.7c5.3-1.5,11-2.3,17.1-2.3
		c5.8,0,11.9,0.9,18.1,2.6c6.3,1.7,11.5,4,15.7,6.9c4.2,2.9,6.3,5.8,6.3,8.8c0,1.8-0.9,3.6-2.6,5.4c-0.6,0.6-1.2,0.6-1.9,0
		c-11.2-8.7-23.7-13-37.7-13c-4,0-7.8,0.5-11.5,1.4c-3.7,1-7.1,2.4-10.2,4.3c-3.1,1.9-5.6,4.6-7.5,8c-1.9,3.4-2.8,7.4-2.8,11.9
		c0.1,4.5,1.6,8.5,4.5,12c3,3.5,6.8,6.5,11.4,8.9c4.6,2.4,9.8,4.8,15.5,7c5.7,2.3,11.3,4.7,16.9,7.3c5.6,2.6,10.7,5.6,15.3,8.9
		c4.6,3.3,8.4,7.6,11.3,12.8c2.9,5.2,4.4,11.1,4.4,17.7c0,6.2-1.3,11.8-3.9,16.6c-2.6,4.9-6.1,8.7-10.5,11.6
		c-4.4,2.9-9.2,5-14.5,6.5c-5.3,1.4-10.8,2.2-16.5,2.2c-4.8,0-9.7-0.4-14.5-1.2c-4.8-0.8-9.3-1.9-13.5-3.4c-4.2-1.5-7.6-3.5-10.2-6
		c-2.6-2.5-3.9-5.3-3.9-8.5c0-1.2,0.4-2.6,1.1-4.1c0.5-0.8,1.1-0.9,1.9-0.4c5.1,3.9,11.1,6.9,18.1,9.2c7,2.3,13.9,3.4,20.7,3.4
		c9.9,0,18.2-2.4,24.7-7.3s9.8-11.3,9.8-19.1c0-4.2-0.9-8-2.7-11.5c-1.8-3.4-4.2-6.3-7.3-8.7c-3.1-2.4-6.6-4.6-10.5-6.6
		c-3.9-2-8.1-3.9-12.5-5.6c-4.4-1.7-8.7-3.5-13-5.2c-4.3-1.8-8.4-3.7-12.3-6c-3.9-2.2-7.4-4.7-10.4-7.3c-3-2.7-5.5-5.9-7.2-9.8
		C153.1,117.1,152.2,112.7,152.2,108z"/>
</g>
</svg>
