<?xml version="1.0" encoding="utf-8"?>
<!-- Generator: Adobe Illustrator 19.0.1, SVG Export Plug-In . SVG Version: 6.00 Build 0)  -->
<svg version="1.1" id="Capa_1" xmlns="http://www.w3.org/2000/svg" xmlns:xlink="http://www.w3.org/1999/xlink" x="0px" y="0px"
	 viewBox="-50 51 181.4 181.4" style="enable-background:new -50 51 181.4 181.4;" xml:space="preserve">
<style type="text/css">
	.st0{fill:#FFFFFF;}
</style>
<g>
	<g>
		<path class="st0" d="M80,132.2c0-0.5,0.3-0.9,0.5-0.7c-0.3-1,0.1-1-0.6-1.2c-0.3-0.6,0.2-1.3,0.5-0.6c0.1,0-0.5-1.8-0.5-1.8
			l-0.1,1.1c-0.6-0.3,0.1-1.7-0.6-2l0.2,1.9l-0.2-0.1c0.3,0.4,0.1,1.3,0,1.6c-0.1,0-0.3,0-0.3-0.4c-0.2,2.3,1.1,0.7,1.1,2.7
			C79.8,132.5,79.9,132.4,80,132.2z"/>
		<path class="st0" d="M78.2,134l0.6,0.9l-0.5,1.3c0.3,0.1,0.2,1.1,0.6,0.5c0-0.1,0-0.4,0.1-0.6c0.6,0.3-0.3,1.9,0.4,1.7
			c0.2-1.1,0.4-1.3,0-2.1c0.3-1,0.6-1.7,0.8-2.2c0-0.3-0.4-0.4-0.4-0.8c0,0.1,0,0.2,0,0.3l-0.9-0.1c0.1,0.3,0,0.6,0,1l-0.8-1.7
			c-0.9,0.4-0.6,1.9-1.1,2.5C78,134,77.3,135.3,78.2,134z"/>
		<path class="st0" d="M79.8,132.7L79.8,132.7L79.8,132.7z"/>
		<path class="st0" d="M3.5,119.4c0.1-0.4,0-0.6-0.1-0.7c0,0-0.4,1.2-0.8,2.3c-0.2,0.6-0.4,1.2-0.4,1.6C2.1,123,2,123.3,2,123.3
			c0.3-0.1,0.8-1.4,0.7-0.5c0.3-0.3,0.4-1.6,0.2-1.8l0.2,0.4c-0.1-1.2,1-1.6,1-0.8l0-0.1c0,0-0.2-0.9-0.3-1.7
			c-0.1-0.4-0.1-0.9-0.1-1.2c0-0.3,0-0.6,0-0.6C3.2,118.1,3.9,118.1,3.5,119.4z"/>
		<path class="st0" d="M82.5,119.9c-0.3-0.5-0.4-0.6-0.4-0.5C82.2,119.6,82.4,119.8,82.5,119.9z"/>
		<path class="st0" d="M3.8,116.2l0-1.2C3.8,115.5,3.8,115.9,3.8,116.2z"/>
		<path class="st0" d="M9.4,124.5C9.4,124.5,9.4,124.5,9.4,124.5l-0.1-0.4v0L9.4,124.5z"/>
		<path class="st0" d="M22.7,102.9c0.1,0,0.2,0,0.3-0.1C23,102.8,22.8,102.8,22.7,102.9z"/>
		<path class="st0" d="M12.3,133.7c0,0-0.7-1.3-0.7-1.3c0.3,0.2,0.1-0.5,0.4-0.3c-0.1-0.1-0.2-0.6-0.3-0.5l0.1,0.3
			c-0.8-0.7-1.1-0.2-1.6-1.5c-0.4,0.9,0,1.2,0.4,1.6c0.1,0.1,0.1,0.3,0.2,0.4c0,0,1.1,1.1,1.2,1.1L12.3,133.7z"/>
		<path class="st0" d="M59.7,111L59.7,111C59.7,111,59.7,111,59.7,111z"/>
		<path class="st0" d="M59.6,111.2l0.1-0.2C59.6,111.1,59.2,111.3,59.6,111.2z"/>
		<path class="st0" d="M4.1,116.8c-0.1-0.1-0.2-0.3-0.2-0.5l0,0.9C3.9,117,4,116.9,4.1,116.8z"/>
		<path class="st0" d="M4.7,118.9l-0.5,1.7l0.1,0.7C4.5,120.6,4.6,119.9,4.7,118.9z"/>
		<path class="st0" d="M19.5,102.8c4.1-0.6-0.9,0.9,1,0.9c1.1-0.2,1.5-0.7,2.2-0.8c-3.2,0.7,0.4-1.4-3-0.8c0.4-0.8,2.4-1.1,3.6-0.9
			c1.3,0.7-1.1,0.5-1.4,1.3c1.3-0.3,1.1-0.3,1.6-0.7c1.1,0.1,2.1-0.1,3.2-0.2c1,0,1.9,0.1,2.4,0.6c1.5,0,1.5-0.3,2.4-0.5
			c0.3-0.7-2.2-0.8-2.7-1.4c0.1,0.1,0.3,0.2,0.2,0.3l-1.3-0.3c1.3,0.4-0.3,0.7-0.9,0.7c-0.5,0-1.5,0-1.3-0.2l0.8-0.1
			c-1-0.3-2.2,0.5-3.2,0.1c-0.1-0.2,0.3-0.2,0.4-0.3c-1.1,0.5-2.3,0.7-4,1.2l0.9-0.8c-0.7,0.5-1.7,0.7-3,1.1
			c-1.2,0.3-2.6,0.4-3.8,0.7c0.3,0,0.7-0.1,0.5,0.2c-1.2,0.7-2.3,0.6-1.9,0c-0.3,0.3-0.7,0.5-1.2,0.7c-0.5,0.3-1.1,0.6-1.8,0.9
			c-1.3,0.6-2.5,1.3-3,2.3c0,0-0.3,0.5-0.6,1.3c-0.4,0.8-0.8,1.8-1.1,2.9c-0.3,1.1-0.5,2.1-0.7,2.9c-0.1,0.8-0.1,1.3-0.1,1.3
			c0.1-0.3,0.1-0.6,0.3-0.9c0.9-0.2,1-0.5,0.9,0.8c0.3-1.1-0.3-1,0.7-2.4c-0.2,0.7,0.3,1.3,1.4,0.1c0.5-0.9,1.1-1.6,1.5-2.4
			c0.5-0.8,0.9-1.6,1.5-2.3c0.6-0.7,1.1-1.5,1.8-2.2c0.7-0.7,1.5-1.3,2.3-1.9c0.3,0.3,3.3-0.6,4.8-0.8c-0.5,0.7-1.5,1.1-2.6,1.4
			c0.7-0.2,1.9-0.4,2.8-0.6L19.5,102.8z"/>
		<path class="st0" d="M10.9,107.7c0.1,0,0.2,0,0.3-0.1C11.2,107.6,11.1,107.6,10.9,107.7z"/>
		<path class="st0" d="M16.2,104.5C16.2,104.5,16.2,104.6,16.2,104.5l0.3-0.1C16.4,104.5,16.3,104.5,16.2,104.5z"/>
		<path class="st0" d="M5.5,116.5c0,0.3,0,0.4,0,0.7l0.1-0.5C5.6,116.6,5.6,116.5,5.5,116.5z"/>
		<path class="st0" d="M4.3,116.8l-0.1-0.2c-0.1,0.1-0.1,0.1-0.2,0.2C4.1,116.8,4.2,116.9,4.3,116.8z"/>
		<path class="st0" d="M33.6,108.4l0.4,0C33.7,108.3,33.6,108.4,33.6,108.4z"/>
		<path class="st0" d="M24.2,103.3c-1.4,0.1-0.1,0.6-2.1,0.8l0.6,0c-1.4,0.4-3.8,0.5-5.4,1.1c0.1-0.3-1.1-0.1-1-0.6
			c-1.1,0.4-2.2,1-2.5,1.7c-0.8,0.1-1.5,1-2.4,1.3c0.5,0-0.6,1.5,1.1,0c-0.1,0.1,0,0.1-0.1,0.2c1.4-0.4,1.7-1.1,2.8-1.6
			c0.8,0-0.9,0.8-0.3,0.7c1.3-0.9,4.5-1,4.2-2c1.1-0.3,1.2,0,1.6,0.1c0.8-0.6,2.4-0.8,3.7-0.6c1.4,0.1,2.5,0.2,2.5-0.5
			c-0.6,0-1.7,0-2.6,0.3L24.2,103.3L24.2,103.3L24.2,103.3z"/>
		<path class="st0" d="M6.6,114.7c0.1-0.1,0.1-0.1,0.2-0.2C6.7,114.5,6.6,114.6,6.6,114.7z"/>
		<path class="st0" d="M-1.9,129.8l-0.9-0.6c-0.1-3.5,0.4-4.7,1-7.7c0.2-0.2,0.2,0.2,0.2,0.4c0.1-1.1,0.7-2.4,1-3.6
			c0.2-0.6,0.4-1.2,0.6-1.8c0.2-0.5,0.4-1.1,0.5-1.5c0.4-0.7,1.6-2.2,1.4-1.4c0.1-0.3,0.2-0.8,0.5-1.1c0.3,0.1-0.4,0.8-0.2,1
			c0.2-0.3,0.3-0.3,0.2-0.5c0,0.6,1.2,0.2,0,2.2c-1.1,0.5,0.7-1.5-0.3-1.5c-0.4,0.7-0.1,0.8,0,0.9c-0.5,0.9-0.7,0.8-0.8,0.6
			c0.1,0.5-1,1.5-0.7,2.2c-0.6,1.9-0.6-0.3-1,0.9l0.6,1l-0.8,2c-0.2,3,1.5,0,1.4,3.2c-0.3-0.5-1.4,0.7-1.7,2.2
			c0-0.9-0.2-2.7,0.2-3.9c-1,1.6,0.3-2.3-0.6-1.6c0.2,0.9,0,2.3-0.4,3.4l0-0.4c-0.3,1.2,0.5,2.1,0.1,3.7c0,0.8-0.2,0.6-0.4,0.5
			C-1.9,129.2-1.7,129.8-1.9,129.8z M-2.1,128l0.1-1.1C-2.1,127.2-2.1,127.6-2.1,128z"/>
		<path class="st0" d="M74.4,144.3l0.2-0.2C74.5,144.2,74.5,144.2,74.4,144.3z"/>
		<path class="st0" d="M21.1,155.3l0.3,0.4C21.3,155.5,21.2,155.4,21.1,155.3z"/>
		<path class="st0" d="M31.1,160.6l0.7,0.3C31.5,160.7,31.3,160.6,31.1,160.6z"/>
		<polygon class="st0" points="71.3,149 71.3,149.1 71.2,149.2 		"/>
		<path class="st0" d="M44.3,171c0.1,0,0.1,0.1,0.2,0.1C44.5,171.1,44.4,171,44.3,171z"/>
		<path class="st0" d="M30.9,160.5C30.9,160.5,30.9,160.5,30.9,160.5l0.1,0.1L30.9,160.5z"/>
		<path class="st0" d="M19.9,150.1c-0.1-0.1-0.2-0.1-0.3-0.2C19.7,150.1,19.8,150.1,19.9,150.1z"/>
		<path class="st0" d="M18.4,152.2c-0.1-0.1-0.2-0.1-0.3-0.2L18.4,152.2z"/>
		<path class="st0" d="M11.6,137.9c0,0-0.3-0.5-0.3-0.5C11.4,137.6,11.5,137.8,11.6,137.9z"/>
		<path class="st0" d="M17.8,150.5c-0.1,0-0.1,0-0.2,0C17.7,150.6,17.8,150.6,17.8,150.5z"/>
		<polygon class="st0" points="78.6,141.8 78.6,141.8 78.6,141.9 		"/>
		<path class="st0" d="M78,139.8l0.1-0.6C78.1,139.5,78,139.7,78,139.8z"/>
		<path class="st0" d="M52.1,167.5c0.2,0,0.6-0.1,0.6,0.1C52.9,167.3,52.6,167,52.1,167.5z"/>
		<path class="st0" d="M81.9,147.3c0-0.2-0.1-0.3-0.1-0.5C81.8,147.1,81.8,147.3,81.9,147.3z"/>
		<path class="st0" d="M81.8,146.8l0-0.4C81.8,146.5,81.8,146.6,81.8,146.8z"/>
		<path class="st0" d="M52.3,176.1c-0.1,0-0.2,0-0.3,0C52.2,176.2,52.2,176.2,52.3,176.1z"/>
		<path class="st0" d="M78.4,138.9c-0.1-0.2,0.1-2.6-0.6-0.7c-0.6-0.3,0.1-1.3,0.1-1.9c-0.3,0.3-0.3-0.3-0.6-0.2
			c0,0.3,0.1,0.6-0.1,1c-0.3,0.1-0.3-0.6-0.1-1c-0.5,0.5-0.3-0.9-0.8-0.1c-0.3,1.8-0.5,3.1-0.2,4.7c0.3-1.1,0.6-2.3,1-3l0.4,0.5
			c-0.8,0.8-0.7,1.5-1.1,2.4l1.1-2c0.8-0.9,0.7-0.2,0.5,0.7C78.2,139.1,78.3,138.9,78.4,138.9z"/>
		<path class="st0" d="M82.4,142.2L82.4,142.2c0-0.1,0-0.1,0-0.2L82.4,142.2z"/>
		<path class="st0" d="M1.1,141.7l-0.3-0.2C1,141.7,1.1,141.8,1.1,141.7z"/>
		<path class="st0" d="M79.3,142.5L79.3,142.5C79.3,142.5,79.3,142.6,79.3,142.5z"/>
		<path class="st0" d="M3.5,147.3L3.5,147.3C3.5,147.3,3.5,147.3,3.5,147.3z"/>
		<path class="st0" d="M14.7,142.9C14.7,142.9,14.7,142.8,14.7,142.9C14.7,142.7,14.7,142.8,14.7,142.9z"/>
		<path class="st0" d="M3.6,147.3C3.6,147.3,3.5,147.3,3.6,147.3C3.5,147.3,3.6,147.3,3.6,147.3z"/>
		<path class="st0" d="M22.9,167.1c0,0,0-0.1,0-0.3C22.8,166.8,22.8,166.9,22.9,167.1z"/>
		<path class="st0" d="M19.5,163c0,0,0-0.1,0-0.1L19.5,163z"/>
		<path class="st0" d="M49.8,166.2c-0.2,0.1-0.3,0.2-0.5,0.3C49.4,166.5,49.6,166.3,49.8,166.2z"/>
		<path class="st0" d="M3.5,147.3c-0.1,0-0.2-0.1-0.3-0.2C3.3,147.2,3.4,147.3,3.5,147.3z"/>
		<polygon class="st0" points="30.9,169.9 30.7,169.8 30.8,169.9 		"/>
		<path class="st0" d="M32.8,171.8c-0.1,0-0.2,0-0.3,0c0.9,0.4,2.3,1.6,2.8,1.2c-0.3-0.2-1.5-1.4-1-1.5c-0.6-0.3-1.2-1.2-1.6-1.3
			c0.7,0.9-0.2,0.5-0.9,0.2c-0.4-0.5,0.4-0.3,0-0.7l-1.3-0.9l1,0.9l-0.7,0.2c0.1,0,0.1,0,0.1,0C33,171,30.7,170.7,32.8,171.8z"/>
		<path class="st0" d="M32.6,171.8c-0.1-0.1-0.3-0.1-0.4-0.1C32.4,171.8,32.5,171.8,32.6,171.8z"/>
		<path class="st0" d="M40.5,178c0.1,0.1,0.3,0.1,0.5,0.2C40.8,178.1,40.7,178,40.5,178z"/>
		<path class="st0" d="M3.9,122.4c-0.2,0-0.8,1.3-0.3,1.4l0.4-1.2C3.9,122.6,3.9,122.4,3.9,122.4z"/>
		<path class="st0" d="M61.7,164c-0.1,0.1-0.2,0.2-0.3,0.3l0,0.1C61.4,164.3,61.6,164.1,61.7,164z"/>
		<path class="st0" d="M34.7,171.5c-0.2-0.1-0.4-0.1-0.5-0.1C34.4,171.5,34.6,171.6,34.7,171.5z"/>
		<path class="st0" d="M62.4,164.7c0.2,0,0.6-0.1,0.7,0c0.3-0.3,0.4-0.6,0.6-0.9C63.4,164.1,63,164.5,62.4,164.7z"/>
		<path class="st0" d="M63.8,163.8L63.8,163.8L63.8,163.8z"/>
		<path class="st0" d="M4.4,121.7l0-0.4l0,0.2l0.4-0.9c0-0.1,0-0.2,0.1-0.4c0,0.1,0,0.1,0.1,0.2l0.1-0.3c-0.3-0.9,0.4-2.8,0.4-3.4
			c0.2-0.8,0.5-1.7,1-2.1c-0.4,0.4-0.7,1.1-0.4,1c0.8-0.8,1.8-0.7,2.5-2.5L8,114c0,0,0.2-0.6,0.4-1.3c0.3-0.6,0.6-1.2,0.6-1.2
			c1-0.3-0.7,1.2-0.6,1.7c0.5-0.9,1.4-1.3,2-1.7c0.6-0.4,1.2-0.6,1.4-1.2c0.4,0.3,1,0.9,2,0.3c-1-0.1,0.4-0.7-0.5-0.9
			c0.2-0.5,1.3-0.5,1.2-0.8l0,0.2c2.2-0.1,2.4-1.5,3.3-2c2.5-0.9,3.7-0.6,5.8-0.8c0.1,0.3,0.7,1.3,1.5,1.2c0.4-0.5,2.2-0.6,2.5-1.1
			c-1.5-0.4-1.3,0.4-2.1,0.5c-0.7-0.6,0-0.6-1.1-1c0.4,0.1,1.4,0,2.3,0.1c0.9,0.1,1.9,0.2,2.3,0.5l-0.3,0c1.4,0.5,1.3,2,3.8,1.7
			c0,0,1.2,0,1.2,0c-0.1,0-0.1,0.1-0.1,0.1c1.7,0.7,1,1,3,1.4c-0.2,0-0.1,0.1-0.2,0c0.9,0.8,2.2,0.7,3,0.9c0.2,0.7-0.3,0.4-0.7,0.5
			c0.8,0.6,1.7,0.9,2.5,1.1c0.8,0.2,1.4,0.3,1.8,0.2c0.2,0.3,0.4,0.5,0.7,0.7l0.1,0.1l-0.1,0.2c-0.4-0.1-1,0-0.9,0.4
			c0.4,0.3,0.4,0,0.9,0.4c0,0,0.1-0.1,0.2-0.1c0,0.2-0.1,0.3-0.2,0.6c-0.1,0.1-0.3,0.2-0.6,0.3c0.3,0.3,0.5,0.5,0.6,0.6
			c0.7-0.6-0.1-1.2,0.9-1c0.5-0.4,0.7-1.1,0.7-1.5c0,0,1-0.2,1-0.2c0-0.5,1.1-1.3,1.8-1.8c0-0.2-0.8-0.1-1,0.2
			c-0.1-0.4,0.5-1,1.1-1.3c0.7,0.8,3.9-2,3.6-0.5c2.6-1.5,6.6-2.3,8.5-2.9c0.7,0.2,2,0.2,1.2,0.7c2.3-0.1,3.6-1,6-0.3
			c0.2,0.1-1.1-0.2-1,0.2c0.8-0.2,1.5,0.2,2.2,0.5c0.8,0.3,1.6,0.6,2.8,1c-0.4-0.1-0.6,0-0.7,0.1c0-0.2,1,0,1.7,0.1
			c0.3,0.2-0.5-0.1-0.4,0.1c2,1.2,3.8,2.1,5.5,3.4c1.7,1.2,3.3,2.8,4.3,5c-0.7-1.2-1.5-1.3-1.7-1.2l0.6,1.1c0.5,0.3,1.1,1.1,1.5,1.8
			c-0.1,0.1-0.1,0.6-0.4,0.2c0.1,1.3,0.8,2.1,1.3,3.1c0.5,1,1.1,2.1,1.2,3.7c0,0-0.5-0.9-1-1.8c-0.5-0.9-1-1.7-1-1.7l-0.3,1
			c0,0-0.8-1.4-0.9-1.4c-0.1,1,0.8,1.6,0.3,1.8c-0.2-0.2-0.2-0.6-0.5-0.6c0,0.9,0.3,0.9,0.5,1.5c-1.2-1.6-2.1-4.7-3.2-6.1
			c-0.2-0.2,0.3,0.1,0.4,0.1c-0.4-0.6-0.3-1.1-0.9-1.9c-0.6-0.3-0.1,0.5,0.1,1c-0.4,0.1-0.4-0.1-0.7-0.5c0.4-0.4-1.4-2.1-1.4-3
			c-2.1-1.6-0.6,1.2-2.3-0.5c0,0-0.2-0.9-0.3-0.9c-0.8-0.2-1.5-0.4-2.3-0.7c-0.8-0.2-1.6-0.4-2.4-0.8L69,112c0.3-0.1,0-0.4-0.1-0.6
			c-1.2-0.5-2.4-0.2-3.1-0.8c-0.8,0.2-1.7,0.4-2.7,0.5c-1,0.3-2,0.4-2.7,0.7c-0.5-0.8,2.1-0.7,2.8-1.2l-1.5,0c0.9,0,1.3-0.3,1.9-0.7
			c-1.4-0.1-1.8,0.5-3.1,0.8c0.1-0.2-0.1-0.3-0.7-0.2l-0.1,0.5c0,0-0.1-0.1-0.3-0.1c0,0-2.2,0.6-2.2,0.6c0.5,0.1,0.6,0.5,1.2,0.5
			c-0.2-0.3,0.2-0.4,0.8-0.4c-0.4,0.4,0.6,0.2,0.6,0.5c-1.1,0.1-2.5,0.4-3.1,0.7l-0.3-0.4c-1.1,0.1-2.1,0.7-2.8,0.9l0.1-0.3
			c-1.3,0.2-2.3,1.1-3.6,1.2l-1.7,2c-0.7,0.8-1.2,1.4-1.8,2.2c-0.3,0.6-1.7,1.5-3.1,2.4c-1.2-1.1-2.3-2.1-3.2-2.3
			c-0.1-0.2,1.3,0.5,1.9,0.6c-1.1-0.9-2.2-0.9-2.3-1.8c2.4,2.1,0-0.6,1.1,0c-1.1-0.9-2.2-1.4-2.8-1.6c1.7,1.2-1,0.4,0.9,1.3
			c-0.8-0.2-1.7-0.6-2.6-1.1c-0.7-0.3-1.3-0.5-1.9-0.9c0.1-0.2,0-0.4-0.4-0.7l-0.5,0.2c-0.6-0.3,1.3,0,0.2-0.6
			c-0.7,0.1-1.6-0.3-2.5-0.6c-0.9-0.2-1.6-0.4-2,0.2c-0.9-0.7,1.9,0,0.6-1c1-0.2,2,0.5,2.5,0.1c-0.9-0.1-0.1-0.6-0.7-0.8l-1.1,0.1
			l0.2,0.1c-0.9,0.1-1.9-0.1-3-0.2c-0.5-0.1-1.1-0.1-1.7-0.2c-0.6,0-1.1,0-1.6,0c-0.9,0.3-1.6,0.7-2.3,1.1c-0.7,0.4-1.4,0.6-2.3,0.9
			c0.5-0.5-1.6,0-0.6-0.9c-1-0.2-1.7,0.6-1.6,0.9c0.7-0.2,0.3,0,0.9-0.1c-0.3,0.5-1.2,0.8-1.7,0.8c0.2,0,0.1-0.1,0.1-0.2
			c-0.9,0.1-0.3,0.4-0.8,0.9c-0.4-0.3-1.2,0.6-1.9,0.7l-0.2,1.1c0.1-0.6-0.7,0.4-1.1,0.2c-0.3,0.6-0.1,1.4-0.7,1.9
			c0.1-0.4-0.8,0.4-1.1,0.2c-0.5,0.6-0.6,1.3-0.7,2c-0.1,0.7,0,1.4-0.5,2c-0.1-0.1-0.3-0.5-0.5-0.1c0,0.4-0.3,0.9-0.3,1.4l0,0l0,0
			c0,0.2,0,0.3,0.1,0.4c0.3,0.8,0.7,1.2,0.8,2.5c0.5,0,0.5-1.1,0.4-1.6l-0.4-0.5c0.8-0.2,0.1-1.2,0.4-1.3c0.3,0.4,0.3,1.2,0.3,2
			c0,0.8-0.2,1.6,0.1,2.3c0.7-0.7,1.1-2.3,1.3-3.6c0,0-0.5,0.5-0.4,0.5c0,0,0.2-0.7,0.2-0.7c0,0-0.7,0.5-0.7,0.5
			c0.2-0.7,0.4-1.2,0.6-1.8c-0.2,0.7-1,0.7-0.7,0.4c0.7-0.6,0-0.9,0.2-1.5c-0.1,0.3-0.3,0.8-0.5,0.4c1-0.9,0.9-1.3,1.9-1.9
			c-0.8-0.4,0.7-1,0.3-1.6l-0.4,0.3l0.3-1.2c1.1-0.3,0,1.1,1.3,0.4c1.1-0.7,0.3-1.5,1.3-2.1c-0.1,0.5-0.4,1.4-1,1.9l0.5-0.1
			c0,0.4-0.9,1-1.2,1.5c0.1-1.1-0.4,0.2-1,0.3c0.3,0.3,0.7-0.1,0.5,0.6c0.4-0.5,0.4-0.6,1-1.1c-0.6,0.6-0.5,1.1-0.4,1.6
			c0.2,0.5,0.4,1-0.2,1.5c0.1-0.7-0.7-0.1-1-0.1c-0.2,0.3-0.2,1.1-0.2,1.4l0.7,0c0.1,0.9-1.6,0.7-1.1,2.1c0.4,0.2,0.3-1,0.3-0.8
			c0.2,1.7-1.1,1.9-1.7,3.5c0.2,0.1,0.6,0.1,1,0.6c-0.4-0.2-0.6,0.2-0.9-0.4c-0.2,0.5,0.1,1.1,0.3,1.5c0.2-1,0.6,0.4,0.9,0.6
			c-0.1,0.5-0.4-0.1-0.5-0.5c-0.1,0.4-0.7,1-0.1,1.2c-0.4,0.1-1.2-1.2-1.3-2c0,0-0.1,0.6-0.1,0.6c-0.2-0.4-0.2-0.5-0.1-1
			c-0.4,0.5-0.7,0.5-1,0.4c0.1-0.1,0.1,0,0.2,0c0.1-0.5,0-0.8-0.2-0.7c-0.6-0.5-0.4,0.7-0.7,1l0.1,0.7c0,0,0.5,0.6,1,1.2
			c0.5,0.6,1.1,1.1,1.1,1.1c0.3,1,0,1.5-0.1,2.3l0.5,0.1c0.1,0.9,0.3,1.8-0.5,1.4c0.2-0.1,0.1-0.2,0-0.4c-0.1,0-0.1,0-0.2-0.1
			l-0.1,0c0.5,0.9,0.7,1.5,0.8,1.5c-1.2-1.4-0.9,0.2-1.8,0.2c0,0,0.2,0.4,0.4,0.8c0.2,0.4,0.5,0.8,0.5,0.8c-0.1-1.1,0.4-0.2,0.7,0.1
			c-0.4,0.3,0.5,1.4,0.8,2h-0.1c0.1,0.6,0.6,1.5,1.1,2.1c0.1-0.1,1.3,0.3,1.9,0.5c-0.4-1.2,0.1-0.6,0.3-0.9c0,0.1,0.1,0.3,0.2,0.3
			c0.2,0.1,0.1-0.3,0.2-0.4c-0.8-1-1.5-2.1-2.3-2.3c-0.1,0.5,0.6,0.5,0.5,1c-0.7-0.4-1-1.2-1.4-2.2l0.3-0.5l-0.6-0.9
			c0.4,0.3,0.7-0.1,1.2,0.9c0.3-0.3-0.5-1-0.6-1.6l-0.6-0.2c0.3,0,0-1.3,0.7-0.5c0,0,0.2,0.3,0.4,0.7c0.3,0.3,0.5,0.7,0.5,0.7
			l0.2-0.5l0.6,1.2l-0.4-0.2c1.2,1.9-0.8,1,0.8,2.8c1,0.3,1.3,1,1.9,2.3c-0.7-0.8-0.5,0.2-1,0c0.3,1.1,1,1.1,1.5,1.4
			c-0.1,0.4-0.3,0.8-0.8-0.1c-0.7,0.3,0.8,1,0.2,1.5c1.9,2.7,3.5,0.7,5.1,4.2l-0.3,0.1c1.9,1.6,2.6,2.9,4.5,4.3c0,0,0.2,0.5,0.4,0.9
			c0.2,0.5,0.4,0.9,0.4,0.9c-0.4-0.2-1.6-0.5-1.5,0.1c-0.1-1.2-1-1.7-1.3-2.7c-0.2,0.1-0.1,0.5,0,0.7c-0.4-0.4-0.3-0.9-1-1.3
			c-0.1,0.1,0.3,0.9-0.2,0.5l-0.4-1.1c-1.1-0.9-1.3,0.3-2.3-1.1c0.5-0.1,1.4,0,1.9,0.4c-0.4-0.6,0.8,0.6,0.6-0.1
			c-1.2-0.4-1.2-1.1-2.4-1.9c0.2,0.1,0.3,0,0.5,0.3l-1.1-1.7c0,0.6-1.3-1.1-1.7-0.6c1.1,1.9,1,1.1,2.4,3.3c-0.5-0.5-1.6-0.8-2.3-0.8
			c0,0,0-0.1,0-0.1c-0.7,0-0.5,0.4-1.3,1c1.3,0.5,1.3,1.5,2.6,2.3c0.6-0.2,0-1-0.6-1.5l1.1,0.7l-0.3,0c0,0,0.5,0.6,1,1.2
			c0.5,0.6,1,1.2,1,1.2c-0.4-0.4-0.8-0.3-1.2-0.4c0.3,0.3,0.4,0.7,0.6,1.1c0.3-0.4,0.6-0.6,0.9-0.3c1.3,1.5,1.8,2.6,2,3.6
			c0.1,0,0.1,0.1,0.2,0.1c0.1-0.6,1.7,0.3,2.5,0.3c-0.4,0.4,0.6,0.9,0.8,1.5c0.6-0.3,0.9-1.2,0.7-2c-1.4-0.5-1-0.1-2,0.1l-2-1.1
			l0.7,0c-0.7-0.9-1.8-1.2-1.3-1.6c0.7,0.1,1.2,1,1.9,1l-0.4-0.7c1.4,0.4,0.1,0.9,1.5,1.6c0-0.8,0.1,0.1,0.9,0.2
			c-0.2-0.6-2.1-1.7-1.1-2.1c0.8,0.2,1.2,2.6,2.6,2.6l-0.1,0c1.1,1.1,1.9,1,2.5,1.2c0.3,0.6,1.3,0.9,1.9,1.3l-0.2,0.2l0.9,0.5
			c-0.7,0.1-0.9-0.7-1.7-1.2l-0.2,0.5c-0.4-1.1-1.5-0.8-2.4-1c1.1,0.4,2.4,2.1,3.2,1.5l0.2,0.8l0.4,0.1c0.2,0.6-0.6,0.8-1.5,0.2
			c-0.1-0.2-0.1-0.3,0-0.4c-0.5-0.1-1.1-0.1-1.9-0.9l0.6,0.2c-1.1-0.9-2.2-1.6-2.9-1.6c1.5,1.5,3,2.8,4.6,4c1.1-0.5,2.1-0.6,2.9-1.3
			c1.1,0.6,2.6,1.5,3.4,2.4l-0.2,0.1c0.4,0.4,0.8,0.6,1.3,0.8c0.3,0.5-0.6,0.2-0.4,0.6l1.7,0.7c-0.4,0.3-1.7-0.5-2.3-0.9
			c0.1,0,0.4,0.1,0.4,0c-0.6-0.6-2.4-0.9-2.3-1.7c-0.4-0.1,1,0.1-0.2-0.8c-0.6-0.8-1.2-0.5-1.4-0.3c-0.2,0.2,1,1.2,0.4,1.1
			c0.6,0.4,1.1,0.3,1.7,1.1c-0.6-0.4-1.8-0.5-1.8-1.1c-1.5-0.5-2.1,0.7-1.5,1.1c0.1-0.4,2.5,1.2,1.2-0.4c1,0.1,2.3,1,3.4,1.4
			l-0.1,0.1l1.2,0.7c-0.2,0-0.7-0.1-0.8,0.1l2,0.5c-1.2-0.2,0.4,0.7,0.7,1.1c0.4-0.2,1.2-0.1,0.7-0.7c-0.5-0.7-0.5-0.1-1.2-0.4
			l1.2,0l0,0.1c0,0,0.2,0,0.4-0.1c0.2-0.1,0.2-0.2,0.2-0.2c0.2,0.2-0.7,1-0.1,0.8l0.2-0.7c0.1,0.1,0.2,0.5,0.5,0.8
			c0.2,0.1,0.4,0,0.5-0.2c0.1,0.4,0.1,1.2,0.4,1.5c-0.3,0-0.6,0.3-1,0.5l-0.1,0c0,0,0-0.1,0.1-0.2c0.1-0.4,0.3-0.9,0.6-0.9
			c-0.2-0.8-0.3-0.1-0.6,0.2c-0.1,0-0.2-0.1-0.1-0.5c-0.4-0.7-0.8,0.9-1.1-0.1c-0.2,0.5-0.6-0.1-1,0.3c0,0.3,0.2,0.5,0.4,0.7
			c0.1,0.1,0.3,0.2,0.4,0.3c0.4,0.1,0.7,0.2,1,0.5c-0.1,0-0.2,0-0.2,0.1c0.3,0.3,0.5,0.4,0.7,0.3c0.1-0.1,0.1-0.2,0.2-0.3l0-0.1
			c0.4-0.8,0.3,0.3,0.7,0.3c0.1-0.2,0.6-0.3,0.4-0.6c0,0,0.8,0.1,0.8,0.1l-0.3-0.5c0.2-0.2,0.8-0.1,1.1-0.7l-0.3-0.5
			c0,0-0.4,0.2-0.8,0.4c-0.3,0.1-0.4,0.1-0.4,0.2c0.1-0.2,0.1-0.3,0-0.4c-0.1-0.1-0.1-0.2,0.3-0.5c-0.7,1.1,0.8-0.2,1.2,0.2l0.5-0.7
			l-0.1,0.2c0.7-0.1,0.5-0.6,1.1-0.9c-0.8,0.2-1.5,0.2-2.2,1.1c0.5-0.7,1.6-1.8,1.8-2c0.5-0.6,1.2-0.6,1.9-1c-1.1,1,1.3,1.1-1.3,2.4
			c0-0.1,0.2-0.2,0.3-0.2c-0.7-0.4-1.4,1-1.8,1.5c0.3,0.2-0.2,0.7,0.9,0.3c-0.4,0,0.3-1.2,1.4-1.6l0.3,0.8l1.3-0.8l-0.1,0.1
			c0.8,0.1,1.3-1,2.4-1.4c0.5-0.7,3-2.3,1.4-2.2c1.1-0.2,1.3-1.2,2.1-1.9L55,164c0.8-1.4,0.7-0.8,1.1-2.3c0.2,0.1,0.6,0.1,0.5,0.4
			c1.6-1.2,4-3,4.3-4.3c1.1-0.9,1.9-0.4,3.1-2c0.2-0.4-0.8-0.3,0.3-1.1c0.1,0-0.4,1.3,0.5,0.2c0.3-1.2,1.9-1.5,2.4-2.9
			c0.6-0.4,1.3-1.4,1.6-0.9c-0.8,0.8-1.8,2.1-1.8,2.4c-0.1-0.3-0.8,0.4-0.4-0.4c-1.4,1-0.5,1-1.8,2c0.1,0.2,1-0.2,1.1-0.5
			c0.5,0.5-1.9,2.4-0.3,2c1.2-1.2,0.5-2.5,2-3.1c-0.1,0.7-0.9,1.1-0.9,2.2l1-0.7l0.2-1l0,0.1c1.9-1.1,0.7-1.9,1.6-3.6
			c-1.1,0.5-0.8-0.9-1.5-0.5c0.7-1,1.3-1.6,1.8-1.2c-0.9,2.1,0.6,0.6-0.2,2.7c0.4-0.1,0.5,1,1.4,0.1c0.5-1.5-0.7,0,0-1.3
			c0.1,0,0.2-0.1,0.3,0c0.1-0.7,0.6-0.5,0.7-1.4l0,0.2c0.9-0.6,0.2-1.2,1.1-1.6c-0.6,0,0-0.7,0-1.3c-0.6,0.6-1.5,0.6-2.4,1.9
			c0.2,0.4,0.5,0.4,0.2,1.1l0.6-0.9c-0.1,0.2-0.1,0.4-0.2,0.7l-0.8,0.7c0.6-1.2-0.2-1-0.2-1.7c0.8-0.9,0.5-0.9,1-1.4
			c0.5,0.4,2.1-1.3,3.1-2.3c-0.1,0.2-0.2,0.4-0.3,0.5c-0.2,1.1,0.8-0.3,0.9-0.3l0.1-0.8c0,0.1,0,0.4,0.2,0.1
			c0.4-0.9-0.2-1.1,0.1-2.1c0.3,0.1,0.4,1,0.9,0.6c0.3-0.1,1.4-0.4,1.6-1.7c-0.1-0.1,0-0.5,0.1-0.9c0,0.1,0,0.1,0,0.2l0.7-0.7
			c0.2,0.9-0.8,1.3-0.6,2.3l0.5,0.3c-0.3,0.6-0.4,1.4-0.3,1.9c0.5-0.8,0.4-1.1,0.8-2.1c0.4,0,0.3,0.8,0.3,0.9l-0.2-0.3
			c-0.9,1-0.3,2-1.2,3.3c-0.1,0.2-0.1,0.1-0.2,0c-0.1,1.4-1.5,2.1-1.5,3.5l0-0.5c-0.3,0.8-0.7,2.5-1.4,4.2l0.2,0.1
			c0.2-0.1-0.2,0.4-0.5,0.7v0c-0.3,0.9-0.7,1.6-1,2.3c0.2-0.1,0.5-0.2,0.7-0.5c0-0.4,1.1-1.5,0.5-1.7c0.7-0.4,1-1.6,1.5-1.9
			c-0.8,0.6,0-0.9-0.2-1.2c0.5-0.1,0.8-1.2,1.1-0.8c0.2-0.1-0.5,0.2-0.5,0.7c-0.2,1.1,1.4-1.3,1,0c0.6-1.5,1.9-3.3,2.2-5l-0.6,0.7
			c0.4-0.6,1.1-2.2,1.4-2.3c-0.2,0.5-0.4,1.1-0.7,1.8c0.5,0.3,0.8-1.5,1.1-1.5c0,0,0-0.6,0-1.1c0-0.6,0-1.1,0-1.1l-0.4,0.8
			c-0.1-0.6,1-2.2,1.5-3.5c0.5,1-0.7,2-0.9,3.5c-0.2,1.1,0.9-0.3,0.7,0.7c0.3-0.2,0.5-0.8,0.5-1.2l0.3-0.3c0.3,1.1-0.7,3-0.8,4.5
			c0-0.1,0-0.3-0.1-0.3c-0.8,0.8-1.2,1.8-1.6,2.8c0.5-0.4,0.5-0.6,0.5-0.9c0.2,0.1-0.3,1-0.3,1.4c0.7-0.7,0.4,0,0.9-0.4
			c-0.2,0.6-0.5,1.1-1,1.7c-0.4,0.2-0.1-0.5-0.4-0.6c-0.3,0.8-1.1,0.7-1.4,1.8c1-1.2,0.4,0.7,0.2,1.3l0.2-0.2c0,0.6-0.2,1-0.7,1.1
			c0.3-0.6,0.7-1.1,0.3-1.1c-0.2,0.4-0.4,0.7-0.6,1.2l0-0.5l-1.2,1.7c0.1,0.5,0.1,1.2,0.3,1.8c-0.6,0.2-0.8,0.9-1,1.3l0-0.3
			c-0.8,0.5-2,2.2-1.9,2.6c-0.6,0.3,1.6-4.7-1.2-1.1c-1.2,1.3,0,1.5-0.5,2.4c0,0,0-0.1-0.2-0.1c-0.6,0.5-0.4,0.8-0.7,1.4
			c0.4-0.2,0.9-0.7,0.9-1c0.1,0.5-1.1,1.1-1.3,1.8c0.1-1-1.2,0.9-1,0.2c-1.4,0.8-2.2,2.2-2.5,3.1c-1.3,0.1-1.3,1.3-2.8,2.1
			c0.2-0.1,0.5-0.5,0.8-0.7c0.4-1-1.5,0.9-0.7-0.4c-0.2,0.3,0.2,0.2,0.3,0c0.4-0.4,0.6-0.9,0.4-1l-1.3,0.5l0.3-0.4l-1.9,0.8
			c0,0.1,0.2,0.1,0.4,0.1c-2,1.3-3.9,3.2-5.6,4.3c0.5,1.4-3.8,3.4-4.7,5c0.2-0.6,0-1.3-0.4-1.4c0.3-0.3,0.6-1.1,1.3-1.5
			c0.2,0.1,1.2-0.3,0.8,0.3c1.8-1.4-0.6-0.3-0.3-1.2c-2,1.6-2.8,3.1-4,4.2l-0.1-0.1c0.1-0.1-1.1,1.1-1.2,1.1
			c1.3-0.7,1.6,0.1-0.2,0.8l0.2-0.2c-1.1,0.3-2.9,1.7-4.4,2.5l-1,1.1l0,0c-1.5-0.9-1.5-1.9-1.9-2.7c-1.1-0.6-2-0.9-2.8-1.2
			c-0.4-0.1-0.9-0.2-1.3-0.4c-0.5-0.1-0.9-0.3-1.2-0.3c-0.3-0.6-2.5-2.2-1.1-1.8c-1.5-0.6-2.4,1.3-4.1-1.2l0.8,0.1
			c-2.3-1.4-5.8-3.2-6.5-4.2c1.6-0.4-1.8-3.1-1.3-4.4c-0.1,0.3-0.9-0.3-1.1-0.2c-0.1-0.3-0.2-0.6-0.7-0.7c0.6,0.9-1.4,0.5,0.4,1.4
			c-1.3,0-2.8-0.3-4.4-1.9l0.4-0.4l1.2,1.3c0.1-0.4,0.8,0.2,1.2,0.3c-2.3-2.4,1.1-0.6-1.4-2.8c-0.5,0-0.2,0.1-1-0.4
			c0.3,0.3,0.6,0,0.1-0.4l-0.7-0.1c-0.2-1.4,1.8,0.9,1.5-0.2c1.2,0.6,3,1.9,3.1,1.1c-1.4-1.5-2.2-0.3-3.6-2l0-0.4
			c-0.7-0.4-1.1-0.1-1.6-0.2c0.1-0.1,0-0.4-0.3-0.7c-1.4-0.5-2.1-1-3.5-1.4c2.6,2,1.5,2.4,4.2,4.4c-0.5-0.2-2.3-1.7-3-1.3l0.4-0.4
			c-1-0.6-1.9-1.2-2.7-2.4l0.8,0.4c-1.5-1.1-1.4-2.8-3-3.4c0.3,0.4,0.6,0.7,0.8,0.9c-0.8-0.6-1.5-1.5-2.1-2.4l-2-1.2
			c0.2-0.1-0.5-1.3,0.2-1c-0.6-1.5-1.6-1.7-2.2-2.4c-0.4-1.7,0.9,1.1,1.7,0.8c-1-2-2.3-3.9-3.3-4.8c0.1,0.5,0.1,0.7,0,0.7
			c0.1-0.1-0.4-0.9-0.5-1.4l-0.5-0.2c-0.1-0.9,0.1-0.8,0.6-0.3c-0.3-0.8-1.3-1.4-1.1-2.4c0.9,1.1,1.3,2.9,1.9,3.4
			c-1.5-2.5-0.3-3-1.9-6.3c0.1-0.1,0.6,0.4,0.4-0.3c-0.6-1.5-0.8-0.2-1.3-0.6c0.6,1.2,0.5,1.8,0.4,2.6l-0.4-0.2
			c0.1-0.1-0.2-0.9-0.1-1.1l-0.6,0c0.6-0.1,0.7-1.5,0.2-2.4c-0.2,1.1-0.2,0.8-0.8,1.3c-1.1-1.2,0.2-1.8-0.8-3.2
			c0.2,0.1,0.7,1.5,0.6,0.2c-0.2-1-0.7-0.8-0.9-1.5c0.6,0.7,1,0.4,1.8,1.1c0.5,1.7,0.1,0.7,0.8,2.3c0,0,0-0.4,0-0.8
			c0-0.4,0.1-0.8,0.1-0.8c0.4,1.4,0.8,0.9,1.1,1c0-2.5-1.2-1.6-1.4-3.3c-0.5-0.7,0.2,1.5-0.4,0.4c-0.1-1.5-0.4-0.3-0.8-2l0.3,0.3
			c0.3-0.6-0.2-1-0.3-1.7c-0.2-0.7-1.8,0.9-2-2c0.2,0.1,0.2,0.2,0.3,0.2c0,0.1,4.5,2.6,4.6,2.5c-0.2-2.6,0-5.6,0.9-8.5
			c1-0.5,0.3,2.2,0.8,2.1c0,0-0.1,0.3-0.2,0.6c-0.1,0.3-0.1,0.6-0.1,0.6c-0.5-0.1,0.3-2.8-0.5-1.7c-0.1,2.4-0.5,3.5,0.3,5.7
			c0.4-0.4,0.4-1.1,0.3-1.9c0-0.8-0.1-1.7,0.3-2.4c-0.1,0.6,0,1.1,0.1,1.6c0.1-1.3,0.5-2.7,0.9-4.1l-0.2-0.4c-0.3,1-0.5,1.6-0.5,1.7
			c0.3-1.3,0-2.5-0.6-2.8l-0.1,0.2L4,122.6C4,122.3,4.2,122,4.4,121.7z M80.6,117.6c-0.1,0-0.2-0.1-0.3-0.1
			C80.4,117.5,80.4,117.4,80.6,117.6z M10.6,146.7c-0.8-1.6-1.5-3.2-2.1-4.8c0,1.6,0.2,3.1,0,3.5c-0.2,0.4-0.9-0.1-1.9-2.5l-0.2-0.3
			c0.2,0.7,0.6,1.8,1.2,2.8c0.8,0.7,3.7,2.3,3.8,2.1c0.1-0.5-0.4-0.6-0.6-1.2L10.6,146.7z M9.5,148.9c0.4,1,0.6,0.6,0.8,0.6
			c-0.2-0.3-0.4-0.6-0.7-0.9C9.7,148.8,9.6,148.9,9.5,148.9z M10.5,149.3c-0.1-0.1-0.1-0.2-0.1-0.2L10.5,149.3z M4.2,130.6
			c0,0,0,0.1,0,0.1c0-0.2,0-0.5,0-0.7C4.3,130.1,4.2,130.2,4.2,130.6z M3.8,132.7l0.5,0.2c0-0.2,0-0.5,0-0.7
			C4,132.3,3.9,132.4,3.8,132.7z M3.8,139.8c0.6,0.3,1.2,1.6,1.8,1.5c0.2,0,0.1-0.3,0.1-0.6c-0.1-0.4-0.3-0.7-0.4-1.2
			c-0.1,0-0.2,0-0.3-0.1c0,0.4,0,0.7-0.4,0.7c0.5-1.3-0.9-0.8-1-2C3,137.8,3.5,139.5,3.8,139.8z M70.4,157c0.1,0,0.2,0,0.5,0
			l-0.3,0.8c-1.1,1-2.6,1.2-3,2.7c-0.6,0.3-1.1,0.2-1.6,0.2c0.2-0.2,0.5-0.4,0.7-0.5C68.5,156.8,69,159.7,70.4,157z M57.4,167.4
			c0.1-0.1,0.1-0.2,0.1-0.2c-1.8,2.9-3.9,4.7-5.3,5.7c0.5,0.2,2.1-0.4,2.8-0.7l-0.2,0.8l-0.6-0.1l-0.7,1.1c0.5,0.1,1.2-0.5,1.9-0.6
			c0-0.1,1.3-1.8,1.5-2.4l-1.5,0.6c0.4-0.1,2.1-1.5,2.7-2.1c-0.1-0.2-1.5,0.3-1.4,0.9c-0.4-0.2,1-1.2-0.1-0.9c0.7-1.1,2.5-2,3.4-2.4
			l0.5,0.4c1-0.4,0-1,1.2-1.5c-1.1,1,0.7,0.4-0.2,1.2c0.4,0,0.4,0.5,1.3-0.3c0.2-1.3,1.3-0.4,1.5-1.6c0.7-0.2-0.2,0.8,0.8,0.1
			c0.8-1.3,0.5-1.5,0.1-2c-1.1,0.7-0.6,1.6-1.5,2.2l0.9-2.2c-0.4,0.1-0.6,0.3-0.8,0.5c0.3-0.3,0.4-0.7,0.5-1.1
			c0.1-0.2,0.1-0.4,0.1-0.6c-0.9,0.8-1.7,1.5-2,1.4l-0.1-0.3c-0.5,0.1-0.9,0.7-1,1.1c-0.8,0.7-1.3,1.7-1.8,1.6l0.1-0.5
			C58.7,166.2,58.7,166.4,57.4,167.4z M23.4,161.4c-0.2,1.4-0.2,2.7,2.8,5l-0.3-0.1c1,1.8,3.4,1.6,4.8,3.5c-1.2-0.3-1.1-0.3-2.7-0.3
			l1.2,0.5c-0.6,0.3,0.5,0.8,1.2,1.3l-1.1,0.1c-0.3-0.5-1.4-1.4-1.4-1.2c0.3,0.1-0.9-1.8-1.9-2.4c-0.2,0.5,1.8,1.8,0.5,1.8
			c1,0.3,0.8,0.8,1.7,1.3c-1-0.3-0.6,0.4-1.4,0.2l1.4,0.9c-0.1,0.2-2.2-1.2-1.4,0.1c0.7,0.2,1.9,1.5,2.3,1.1l-0.1,0.2
			c0.9,0.8,0.9-0.3,2,0.8c0.2-0.2,0-0.5-0.4-0.8c-0.4-0.2-0.7,0.1-1.5-0.4c-0.1-0.6,0.9,0.7,0.8-0.2c-0.1-0.5-2.2-1.2-1.2-1.5
			l0.9,0.8c0.3-0.4,1,0.1,1.3-0.2c0.7,0.3,1,1.2,1.9,1.2c0.5-0.1,0.4-1,1.3,0c0.4,1.2,2.9,2.7,3.9,3.2l1.1,0.3c0-0.4-1.7-1-0.9-1
			l1.4,0.7l-0.2,0.1c0.5,0.3,1,0.4,1.5,0.5c-0.6,0.1-1.5-0.7-1.6,0c0.7,0.5,0.7,0.8,1.4,1.1c-0.2,0-0.3-0.1-0.3,0
			c1.5,1.1,1.6,0.2,1.9,0.2c1.4,0-1.3-1.5-0.9-2c0.7,0.3,1.5,0.7,2.2,1.1l1.3-1c-0.3,0.4-0.6,0.7-0.4,0.9c0.9-0.2,0.1,0.5,1.4-0.3
			c-0.3-0.7,1.5-1.4,2.1-2.3c0.6,0,0.7,0-0.2,0.6c0.4,0.4,1.4-0.5,1.9-0.8c0.2-0.3,0.5-0.6,0.7-0.8c-0.5,0-0.5-0.3,0.1-1l0-0.1
			c-1.3,0.7-3.5,1.4-3.9,2.2l0.1-0.3c-1.2,0.3-2.3,2.1-3.1,2c-0.1-0.1-0.1-0.2-0.2-0.3c0.1-0.4-0.3-0.2-0.2-0.8c0,0-0.2,0-0.5,0
			c-0.2,0-0.5,0-0.5,0l0.2-0.2l-1.5-0.7l0.1-0.1c-0.9,0.1-1.7,0-2.4-0.1c-0.1,0.2-0.1,0.3-0.5,0.3c-0.3-0.1-0.6-0.2-0.7-0.4h0l0,0
			c-0.4-0.3-0.5-0.8-1-1.3l1.7,1c0.3-0.2,0.4-0.7-0.2-1.4c0.3,0.2,0.6,0,0.3-0.3c-0.1,0.1-1.2-0.5-1,0c-1.6-0.9-3.5-3.4-6.1-4.5
			c1.9,0.8-1-1.4,0.9-0.2c-0.8-1.4-1.4-0.3-2.6-1.3c0-0.3,0.7,0.6,1.2,0.4c-1.9-1.8-4.1-1.9-5.9-3.8l0.2-0.4
			C24.3,162,23.8,161.7,23.4,161.4z M19.3,158.4c-0.4-0.3-0.8-0.6-1.2-1l0.1,0.1l-1.3-0.8c0.5,0.8,0.5,1.6-0.6,0.8
			c0.2-0.1,0.2-0.5,0.5-0.3c-0.4-0.8-1.4-2.4-1.6-1.6c1.6,0.8-0.5,0.9,0.8,1.5c-0.8-0.2-1.1-0.9-1.7-1.2c0.8,0.3,0.6-0.7,0.1-1.6
			c-0.4-0.3-1.1-1.3-1.7-1.8c-0.2,0.5-0.8,0.1-0.2,1.2c-0.4-0.3-0.9-0.8-1.2-1.6c0.3,0.2,0.6,0.6,0.7,0.5c0-0.7-0.3-1.1-0.4-1.5
			l-0.5-0.6c0,0.1,0,0.2,0,0.2l-0.8-0.5c0.8,0.8,0.1,0.6-0.1,0.7c0.5-0.3-0.4-0.7-0.6-1l0,1c-0.5-0.2-0.5-1.4-0.8-1
			c0.9,1.7,1.3,2.2,2.5,3.4l-0.1-0.8c1.4,1.3,0.1,1.4,1.4,3c0.8,0.4,2.1,2.4,2.7,1.9c-0.4,0,0.3,1.5,1.1,1.7
			c1.1,0.1,2.8,1.7,2.5,0.9c-0.5-0.4-1.3-0.8-1.4-1.5l1,0.8l-0.3-0.9C18.8,159.3,19,158.9,19.3,158.4z M10,134.6L10,134.6L10,134.6
			L10,134.6z"/>
		<path class="st0" d="M78.9,141.2c-0.1-0.4,0.3-1.2-0.2-1.1C79.2,140.2,78.3,141.4,78.9,141.2z"/>
		<path class="st0" d="M79.7,140.4c-0.1-0.1-0.2-0.1-0.1-0.5l-0.3,1L79.7,140.4z"/>
		<path class="st0" d="M82.9,140.4c-0.1-0.7-0.2-1.1,0.1-1.9c1.1,0-0.1,1.5,0.6,2.2c0.6-1.6-0.1-2.4,0.1-3.8
			C83.2,137.5,82.1,140,82.9,140.4z"/>
		<polygon class="st0" points="83.8,141.5 84,140.5 83.9,140.6 83.7,141.6 		"/>
		<path class="st0" d="M66.1,152.6c-0.3-0.2-0.4,0.4-0.5,0.7C65.7,153.2,66,153,66.1,152.6z"/>
		<path class="st0" d="M63.2,114.4c0,0,1.3,0.1,2.5,0.1c1.2,0.2,2.4,0.4,2.4,0.5C66.9,114.7,65.5,114.4,63.2,114.4z"/>
		<path class="st0" d="M51.4,168.2c1.3-1.3,1.6-2.2,2.9-3.4c-2.3,0.9-1.9,2.7-3.9,3.3L51.4,168.2z"/>
		<path class="st0" d="M50.3,165.7c0.6,0.3-0.7,1.4-0.2,1.6c0.9-0.8,0.1-0.8,1-1.4L50.3,165.7z"/>
		<polygon class="st0" points="63.1,169 62.8,169.6 63.1,169.2 		"/>
		<polygon class="st0" points="44.5,170.2 44.5,170.1 44.2,170 		"/>
		<path class="st0" d="M44.5,169.9l0,0.2L44.5,169.9z"/>
		<polygon class="st0" points="63.3,170.5 64.1,170 64.2,169.5 		"/>
		<path class="st0" d="M55.4,172.3l0.5-0.6C55.8,171.9,54.8,172.2,55.4,172.3z"/>
		<polygon class="st0" points="43,170.4 42.8,170.5 42.8,170.6 43,170.5 		"/>
		<path class="st0" d="M51.5,177c0.7,0.1-1.2,0.9-0.1,0.7C52.2,177.2,51.7,177.2,51.5,177z"/>
		<path class="st0" d="M39.9,176.1c-0.1-0.1-0.2-0.1-0.4-0.1C39.7,176,39.8,176.1,39.9,176.1z"/>
		<path class="st0" d="M39.9,176.1c0.3,0.2,0.7,0.6,0.9,0.6C40.5,176.2,40.3,176.2,39.9,176.1z"/>
		<path class="st0" d="M36,173.8l0.3,0.2c-0.4,0-0.3,0.1,0.1,0.1c0.3,0.2,0.4,0.1,0.5,0c0.1,0,0.2,0,0.3,0c-0.1,0-0.2,0-0.4,0
			C36.3,173.7,36,173.5,36,173.8z"/>
		<path class="st0" d="M28.1,157.7c0.8,0.9,1,1.2,0.7,1.4c0.8,0.8,1.1,0.2,1.7,0.6C29.5,158.9,29.4,158.6,28.1,157.7z"/>
		<path class="st0" d="M30.5,159.7c0.1,0.1,0.2,0.2,0.4,0.3C30.8,159.8,30.6,159.7,30.5,159.7z"/>
		<polygon class="st0" points="39.3,180.6 38,180.5 38.5,180.6 		"/>
		<path class="st0" d="M27,156.3c0.1,0.2,0.4,0.4,0.5,0.6C27.7,156.7,26.8,156.2,27,156.3z"/>
		<path class="st0" d="M25.8,165c0,0.3,0.7,0.7,0.9,1C26.3,165.6,26.4,164.8,25.8,165z"/>
		<path class="st0" d="M23.4,155.1c0.1,0.2,0.2,0.6-0.1,0.7C23.7,155.9,24.4,155.7,23.4,155.1z"/>
		<polygon class="st0" points="24,163.4 24.1,163.6 24.9,164 		"/>
		<path class="st0" d="M22.9,169.7c1.1,0.3-0.6-1.9,1-1c-1.5-1.8-0.3,0.6-1.5-0.6C23.1,168.9,23.1,169.6,22.9,169.7z"/>
		<path class="st0" d="M22.4,168.1c-0.1-0.1-0.2-0.2-0.3-0.3C22.2,167.9,22.3,168,22.4,168.1z"/>
		<path class="st0" d="M14,155.9c0.1,0.1,0.2,0.1,0.3,0.2C14.3,156,14.2,156,14,155.9z"/>
		<path class="st0" d="M18.1,164.7l1.6,0.6c-1.1-0.4-3-2.2-3.3-1.6c0.5,0.7,1.4,1.3,1.9,1.4L18.1,164.7z"/>
		<path class="st0" d="M16.4,144.3l0.5,0.3l-0.3-0.6C16.7,144.2,16.1,144.2,16.4,144.3z"/>
		<path class="st0" d="M16.6,143.9l0.1,0.1C16.6,144,16.6,143.9,16.6,143.9z"/>
		<path class="st0" d="M16.2,157.9c0.3,0.4,0.6,0.7,1,0.9C17.1,158.6,16.4,157.6,16.2,157.9z"/>
		<polygon class="st0" points="13.7,141.4 14.2,142.2 13.7,141.3 		"/>
		<path class="st0" d="M13.1,137.2l0.1-0.2l-0.4-0.6l-0.1,0.2C12.7,136.6,13.1,137.2,13.1,137.2z"/>
		<path class="st0" d="M3.8,148.3c0.3,0.8,1.1,1,1.2,0.8l-0.8-1.4c-0.3,0.6,0.2,0.4,0.5,1.2L3.8,148.3z"/>
		<path class="st0" d="M19.8,115.6c-0.2,0.3-1.1,0.5-1.3,0.2c0.1-0.2,0.6-0.5,0.2-0.6l-0.5,1.1c-1.2-0.1,0.3-1.3,0.8-1.8
			c-1.1,0.4-1.3,0.9-2.4,1.5c0.3-0.1,0.6,0,0.9,0.1c0.2,0.5-0.7,0.8-1.3,1.2c0.5,0,0.4,0.3,0.3,0.7c0,0-0.1,0.1-0.1,0.1l0,0.1l0.1,0
			c0,0.1,0.1,0.1,0.2,0.2c0.4-0.4,1-0.2,1.3-0.4c-0.8-0.8,1.1-0.7,1.4-1.2c0,0,0.5-0.3,0.5-0.3l0.2,0c0.1,0.1,0,0.2-0.2,0.5
			c0.2-0.2,1.1-0.4,1-0.7c-0.1-0.1,2.2-0.3,2.2-0.3c0.1,0,0.1,0.1,0.2,0.1c0.1-0.1,0.1-0.1,0.1-0.2c0,0,2.6-0.1,5.3,0.4
			c2.7,0.5,5.1,1.7,5.1,1.7c-0.5-0.3-0.8-0.7-1.3-1c1-0.3-0.8-0.4-0.4-0.9c0.4-0.1,1,0.1,1.2,0.5c0.2-0.2-0.1-0.7,0.1-1
			c-1.3-0.8-2,0.4-3.3-0.2c0.1-0.3,0.7-0.6-0.3-0.7l0.3,0c-1.6,0.1-1-1.2-2.1-0.3l0.1-0.5c-0.8,0.4-2.1,0.1-2.8,0.2l0-0.1
			c-2.1,0.6-1.2,0-3.4,0.5l1-0.7c-0.8-0.2-0.9,0.5-1.5,0.5c0-0.1-0.2-0.5,0.4-0.6c0,0-0.7,0.2-1.3,0.7c-0.6,0.4-1.2,0.8-1.2,0.8
			C19,115.5,19.7,115.4,19.8,115.6z"/>
		<path class="st0" d="M16.7,116c-0.1,0-0.2,0.1-0.4,0.2C16.4,116.1,16.6,116,16.7,116z"/>
		<path class="st0" d="M34.5,118.4l-0.7-0.3C34,118.2,34.2,118.3,34.5,118.4z"/>
		<path class="st0" d="M14.8,118.8c0.5,0,0.1,0.4,0.2,0.7c-0.1-0.1,0.9-0.8,0.9-0.8c-0.1-0.2-0.2-0.4-0.3-0.5L14.8,118.8z"/>
		<path class="st0" d="M16.4,118.7c-0.1-0.1,0-0.3,0-0.5l-0.5,0.5C16,118.7,16.2,118.8,16.4,118.7z"/>
		<path class="st0" d="M9.5,110.1l0.3-0.3c0,0,0.4-0.6,0.5-0.5C10.2,109.2,9.5,110.1,9.5,110.1z"/>
		<path class="st0" d="M16,107.6c-0.6-0.1-1.4,0.5-1.7,0.7C15.3,107.8,14.9,108.1,16,107.6z"/>
		<polygon class="st0" points="13.4,105 14.5,104.4 14.3,104.4 		"/>
		<path class="st0" d="M44.6,121.3c0.2-0.2,0.4-0.4,0.6-0.5C44.9,121,44.7,121.2,44.6,121.3z"/>
		<path class="st0" d="M34.5,116.6c1.4,1.3-1.3-0.1-1.1,0.9l1,0.2l-0.2,0.1c0,0,0.3,0.1,0.6,0.2c0.1,0,0.3,0.2,0.5,0.3
			c0.2,0.1,0.3,0.2,0.3,0.2c-0.2-0.6-0.5-0.8-0.3-1.1c2.5,1.9,0.6,0.9,2.3,2.8c0,0,0.7,0.4,1.5,1.1c0.9,0.7,1.7,1.3,1.7,1.3
			l-0.3-0.1c0.3,0.2,0.4,0.3,0.5,0.3c0.7,0.5,1.4,1.1,2.1,1.6l4.7-3.8l2-1.5l1-0.7c0.3-0.2,0.7-0.6,0.8-0.6c0.9-0.7-0.9-0.3-0.4-1.2
			c-0.2,0.1-0.3,0.1-0.5,0.3c-0.3,0.2-0.5,0.4-0.8,0.5c-0.6,0.4-1.1,0.7-1.6,1c-0.9,0.6-1.8,1.4-1.8,1.9c0.1-0.2,0.1-0.5-0.3-0.2
			l-1.2,1.7l1.3-0.8c-0.6,0.8-1.8,2-3.1,3c-1.5-1.2-3.1-2.6-3.4-3.1c2.2,1.5,1.6,0.4,3.4,1.9c0.3-0.2,0.7-0.5,1.3-0.9
			c-0.2-0.1-0.8,0-0.1-0.7c-0.4,0.3-0.8,0.7-1.2,1c-0.8-0.6-1.6-1.3-2.5-1.9c-0.8-0.6-1.7-1.3-2.3-1.7
			C37.2,117.8,35.4,116.6,34.5,116.6z"/>
		<path class="st0" d="M62.9,113.9L62.9,113.9C62.9,113.9,62.9,113.9,62.9,113.9z"/>
		<path class="st0" d="M62.1,113.8l-1.1,0.7l1.7-0.1l0.1-0.5c-0.2,0.1-0.8,0.4-1,0.2L62.1,113.8z"/>
		<path class="st0" d="M59.8,115.1c0.8-0.3,0.8-0.9,0.2-1.1c0.8-0.4,0.5,0.5,1-0.1c0-0.5-1.1-0.1-1.3,0L59.8,115.1z"/>
		<polygon class="st0" points="53.5,116.5 53.6,116.1 53,116.3 		"/>
		<path class="st0" d="M53.6,116.1l0.6-0.1c-0.1-0.2-0.2-0.3-0.4-0.4L53.6,116.1z"/>
		<path class="st0" d="M55.8,115.6c0.3-0.1,0.5-0.1,0.9-0.1C56.7,115.5,55.8,115.6,55.8,115.6z"/>
		<path class="st0" d="M55.1,115.7L55.1,115.7l0.7-0.1C55.5,115.7,55.3,115.7,55.1,115.7z"/>
		<path class="st0" d="M54.2,116c0.2,0.4,0.5,0.7,1.3,0.3l-0.4-0.6L54.2,116z"/>
		<polygon class="st0" points="22.1,103.6 23.1,103.2 23,103.2 22,103.5 		"/>
		<path class="st0" d="M28.1,104.1c0.3,0,0.5-0.1,0.6-0.1C28.4,104,28.2,104,28.1,104.1z"/>
		<path class="st0" d="M33.1,102.1c1.1,0.7-1.9,0.1,0.4,0.9c0.1,0.4-1.1,0.7-2.1,0.2c0.2-0.3,1.1,0,0.5-0.5c-0.8,0.3-1-0.1-0.9,0.5
			c-1.3,0.1-1.5,0.5-2.3,0.8c1.5-0.1,4.3,1.1,6.2,1c1.2-0.3,0.9-1.4,1.2-2.3c0-0.1-0.7-0.5-1.4-0.7
			C33.9,101.8,33.2,101.8,33.1,102.1z"/>
		<path class="st0" d="M31.3,100.7c-0.6-0.2-0.8-0.1-1.2-0.1C30.1,100.9,30.8,100.6,31.3,100.7z"/>
		<path class="st0" d="M40.3,112c0.1-0.1,0.9,0.2,0.8-0.2l-1.1-0.5C40.3,111.5,40.3,111.7,40.3,112z"/>
		<path class="st0" d="M39.6,111.1l0.5,0.2C39.9,111.3,39.8,111.2,39.6,111.1z"/>
		<path class="st0" d="M40.4,112.1l0-0.1C40.3,112,40.3,112,40.4,112.1z"/>
		<path class="st0" d="M58.3,115.2c0,0.2,0.5,0,0.7-0.1C58.8,115.2,58.5,115.1,58.3,115.2z"/>
		<path class="st0" d="M73.5,118.2l0.1,0.4C73.6,118.4,73.6,118.3,73.5,118.2z"/>
		<path class="st0" d="M83.1,121c0.1,0,0.1,0,0.2,0.1C83.3,121,83.2,121,83.1,121z"/>
		<path class="st0" d="M83.3,121.1c0.4,0.3,0.4,1.5,0.7,1.9l-0.1,0l0.3,0.7c-0.1-0.4-0.2-0.9-0.3-1.5
			C83.8,121.7,83.5,121.2,83.3,121.1z"/>
	</g>
</g>
</svg>
