<?xml version="1.0" encoding="utf-8"?>
<!-- Generator: Adobe Illustrator 19.0.1, SVG Export Plug-In . SVG Version: 6.00 Build 0)  -->
<svg version="1.1" id="Capa_1" xmlns="http://www.w3.org/2000/svg" xmlns:xlink="http://www.w3.org/1999/xlink" x="0px" y="0px"
	 viewBox="-114.7 263.1 263.7 250.7" style="enable-background:new -114.7 263.1 224.7 250.7;" xml:space="preserve">
<path d="M-25.1,273.9c-1.6,0-3.2,0.9-4.1,2.3l-14.5,21.7H-93c-2.8,0-5,2.2-5,5v50c0,2.8,2.2,5,5,5h50c2.8,0,5-2.2,5-5v-39.4l-10,15
	v19.4h-40v-40h37.7L-64.4,329l-6.1-12.3c-1.2-2.5-4.2-3.5-6.7-2.3s-3.5,4.2-2.3,6.7c0,0,0,0.1,0.1,0.1l10,20
	c1.2,2.5,4.2,3.5,6.7,2.2c0.8-0.4,1.4-1,1.9-1.7l40-60c1.6-2.3,1-5.4-1.3-7C-23,274.1-24,273.8-25.1,273.9L-25.1,273.9z"/>
<path d="M-3,317.9c-2.8,0-5,2.2-5,5v10c0,2.8,2.2,5,5,5h90c2.8,0,5-2.2,5-5v-10c0-2.8-2.2-5-5-5H-3z"/>
<path d="M-43,367.9h-50c-2.8,0-5,2.2-5,5v50c0,2.8,2.2,5,5,5h50c2.8,0,5-2.2,5-5v-50C-38,370.2-40.2,367.9-43,367.9z M-48,417.9h-40
	v-40h40V417.9z"/>
<path d="M-3,387.9c-2.8,0-5,2.2-5,5v10c0,2.8,2.2,5,5,5h90c2.8,0,5-2.2,5-5v-10c0-2.8-2.2-5-5-5C87,387.9-3,387.9-3,387.9z"/>
<path d="M-43,437.9h-50c-2.8,0-5,2.2-5,5v50c0,2.8,2.2,5,5,5h50c2.8,0,5-2.2,5-5v-50C-38,440.1-40.2,437.9-43,437.9z M-48,487.9h-40
	v-40h40V487.9z"/>
<path d="M-3,457.9c-2.8,0-5,2.2-5,5v10c0,2.8,2.2,5,5,5h90c2.8,0,5-2.2,5-5v-10c0-2.8-2.2-5-5-5H-3z"/>
</svg>
