<?xml version="1.0" encoding="utf-8"?>
<!-- Generator: Adobe Illustrator 19.0.1, SVG Export Plug-In . SVG Version: 6.00 Build 0)  -->
<svg version="1.1" id="Capa_1" xmlns="http://www.w3.org/2000/svg" xmlns:xlink="http://www.w3.org/1999/xlink" x="0px" y="0px"
	 viewBox="97 -98.2 477.6 477.6" style="enable-background:new 97 -98.2 477.6 477.6;" xml:space="preserve">
<style type="text/css">
	.st0{fill:#FFFFFF;}
</style>
<g>
	<g>
		<path class="st0" d="M408,43.9c-2.8-0.4-5.7-0.5-8.5-0.5c-24.6,0-43.6,13.2-56.3,26C331,44.4,311.9,28.4,288.9,24
			c-3.6-0.7-7.3-1-11-1c-27.6,0-57.6,19.8-71.2,47.1c-13.7,27.5-9.2,57.6,13.3,89.3c22.7,31.9,51.1,59.7,78.5,86.6l5.6,5.5
			c2.1,4.1,6.2,6.7,10.6,6.7c1.8,0,3.6-0.4,5.4-1.3l9.9-4.9c34.4-17.1,70-34.7,101.4-58.1c31.3-23.2,44.8-50.4,40.3-80.8
			C467.3,82.5,442.2,48.2,408,43.9z M449.5,130.2c-1.1,26-30.3,44.7-49.7,57.1c-26.4,16.8-54.7,31.1-82.2,44.8
			c-22.3-21.9-45.3-44.6-65.4-69.2c-14.6-17.7-36.6-44.6-29.6-69.7c6.3-22.7,29.7-47,54.5-47c1.6,0,3.2,0.1,4.7,0.3
			c28.6,3.7,41.1,32.2,45.3,45.2c-0.2,2.6,0.7,5.2,2.4,7.4c2.4,2.9,6,4.6,9.8,4.6c3.9,0,7.4-1.9,9.7-5.2
			c6.6-9.6,24.7-31.8,50.4-31.8c2.7,0,5.5,0.3,8.2,0.8C433,72.3,450.6,104.5,449.5,130.2z"/>
	</g>
</g>
</svg>
